<svg width="240" height="79" viewBox="0 0 240 79" fill="none" xmlns="http://www.w3.org/2000/svg">
<path d="M37.6982 37.4591C37.6982 41.7782 36.9114 45.3891 35.3376 48.2918C33.7638 51.1771 31.4819 53.3541 28.4917 54.823C25.5191 56.2743 21.9081 57 17.659 57H7.24589V18.6526H18.8131C22.7125 18.6526 26.0699 19.3695 28.8852 20.8034C31.7005 22.2198 33.8688 24.3269 35.3901 27.1247C36.9289 29.905 37.6982 33.3498 37.6982 37.4591ZM33.0032 37.6165C33.0032 34.1717 32.4261 31.3301 31.272 29.0919C30.1354 26.8536 28.4567 25.1924 26.236 24.1083C24.0327 23.0067 21.3311 22.4558 18.1311 22.4558H11.7049V53.1705H17.1344C22.4152 53.1705 26.3759 51.8678 29.0163 49.2623C31.6742 46.6569 33.0032 42.7749 33.0032 37.6165ZM65.4249 57H44.0741V18.6526H65.4249V22.587H48.5331V34.9935H64.4544V38.8755H48.5331V53.0656H65.4249V57ZM100.837 57H96.3777V38.9279H76.2335V57H71.7745V18.6526H76.2335V34.9935H96.3777V18.6526H100.837V57ZM121.009 57H116.524V22.587H104.458V18.6526H133.022V22.587H121.009V57Z" fill="#146D63"/>
<path d="M136.424 27.2249V44.2959C136.424 44.631 136.417 44.9735 136.403 45.3232C136.403 45.6729 136.395 46.0299 136.381 46.3942C136.381 46.7585 136.373 47.1155 136.359 47.4653C136.344 47.815 136.322 48.1574 136.293 48.4926L150.479 27.2249H153.189V50.9844H151.091V33.7604C151.091 33.3232 151.091 32.8715 151.091 32.4052C151.106 31.9243 151.12 31.4507 151.135 30.9844C151.149 30.5036 151.164 30.0518 151.178 29.6292L136.927 50.9844H134.282V27.2249H136.424Z" fill="#146D63"/>
<circle opacity="0.25" cx="200.831" cy="39.1693" r="37.6771" stroke="#146D63" stroke-width="2.98433"/>
<path d="M217.499 67.0164C212.592 69.9534 206.997 71.5418 201.278 71.6207C195.56 71.6996 189.923 70.2662 184.937 67.4656C179.951 64.6651 175.794 60.5968 172.886 55.6727C169.978 50.7486 168.422 45.1436 168.377 39.4251C168.332 33.7066 169.799 28.0778 172.629 23.1084C175.459 18.1391 179.552 14.0058 184.493 11.127C189.434 8.24814 195.048 6.72603 200.767 6.71476C206.485 6.70349 212.106 8.20345 217.058 11.0628" stroke="#DA7F2B" stroke-width="2.98433"/>
<path d="M186.142 37.123C186.142 39.6985 187.401 39.6985 187.401 41.4155C187.401 43.9911 186.562 43.1326 186.142 50.8591C185.971 54.0045 184.854 56.2915 184.464 58.1564C184.044 61.1612 184.044 63.4643 184.044 63.4643C184.38 64.8811 184.56 64.0858 186.18 61.5998C187.02 60.3121 189.835 57.1582 194.536 55.0977C196.774 54.0961 199.61 55.0977 199.915 59.7353C199.98 60.7158 201.169 63.0552 201.441 61.5365C201.888 58.6971 203.349 55.0977 205.867 58.961C207.424 61.3495 208.73 65.6069 209.224 62.8243C209.644 60.2488 212.162 57.244 207.965 50.3759C207.488 49.5956 207.126 48.2039 207.126 47.3712C207.126 46.5127 207.546 46.0834 207.546 43.9371C207.546 42.2201 207.546 40.9324 209.224 37.4983C210.064 35.3521 210.064 34.4936 210.483 31.918C210.903 28.484 210.903 28.0548 210.903 26.767C210.903 25.9085 208.805 25.9085 202.09 26.767C201.25 26.767 200.831 24.6207 199.991 25.9085C199.572 26.767 199.068 26.1768 197.054 25.5329C190.759 22.9574 187.401 26.3914 186.562 28.9671C186.053 30.5305 185.723 30.6841 185.723 32.4011C185.723 34.1181 186.142 33.689 186.142 37.123Z" fill="url(#paint0_linear_25_46)" stroke="#146D63" stroke-width="0.746081"/>
<path d="M192.955 25.472C190.208 25.5432 188.863 28.3154 188.52 29.7747L190.237 28.0377C191.356 26.9188 191.356 26.9187 192.101 26.5458L192.102 26.5456C193.436 25.8785 194.713 25.4265 192.955 25.472Z" fill="white" stroke="white" stroke-width="0.746081"/>
<path d="M200.063 41.9951C201.113 41.848 203.927 41.3534 207.519 38.1419C207.42 38.7576 206.744 40.5788 201.865 43.5479C201.53 43.7515 199.867 44.3413 199.15 43.427C198.866 43.0656 199.015 42.1422 200.063 41.9951Z" fill="white" stroke="white" stroke-width="0.746081"/>
<path d="M207.918 22.3825C206.799 21.8851 204.561 20.3681 204.561 18.279C203.498 18.5153 202.75 18.4476 202.235 18.2563C201.112 18.8713 200.458 19.0251 200.458 19.0251C200.71 18.5738 201.215 17.5827 201.21 17.229C201.206 17.2034 201.204 17.1802 201.204 17.1599C201.204 16.0408 201.528 15.3437 201.95 14.9217C202.696 14.1756 204.188 14.1756 206.426 16.0408C206.929 16.3761 208.499 16.341 210.903 17.533C213.514 19.0251 214.352 20.0687 215.379 20.8903C216.591 21.8595 220.024 26.6543 219.483 26.1129C218.364 24.9937 213.887 21.2633 213.514 21.6364C211.425 21.3379 210.53 24.6207 210.53 26.1129C209.933 27.605 209.531 26.4859 209.404 25.7398C209.317 23.3409 208.392 22.5009 207.918 22.3825Z" fill="#146D63"/>
<path d="M209.411 26.1129C209.411 25.9845 209.408 25.8602 209.404 25.7398M209.404 25.7398C209.317 23.3409 208.392 22.5009 207.918 22.3825C206.799 21.8851 204.561 20.3681 204.561 18.279C203.498 18.5153 202.75 18.4476 202.235 18.2563M209.404 25.7398C209.531 26.4859 209.933 27.605 210.53 26.1129C210.53 24.6207 211.425 21.3379 213.514 21.6364C213.887 21.2633 218.364 24.9937 219.483 26.1129C220.024 26.6543 216.591 21.8595 215.379 20.8903C214.352 20.0687 213.514 19.0251 210.903 17.533C208.499 16.341 206.929 16.3761 206.426 16.0408C204.188 14.1756 202.696 14.1756 201.95 14.9217C201.528 15.3437 201.204 16.0408 201.204 17.1599C201.204 17.1802 201.206 17.2034 201.21 17.229M202.235 18.2563C201.112 18.8713 200.458 19.0251 200.458 19.0251C200.71 18.5738 201.215 17.5827 201.21 17.229M202.235 18.2563C201.52 17.9908 201.252 17.4873 201.21 17.229" stroke="#146D63" stroke-width="0.746081"/>
<line opacity="0.25" x1="168.376" y1="9.69907" x2="0.507889" y2="9.69907" stroke="#146D63" stroke-width="2.98433"/>
<line opacity="0.25" x1="168.376" y1="67.8934" x2="0.507889" y2="67.8934" stroke="#146D63" stroke-width="2.98433"/>
<defs>
<linearGradient id="paint0_linear_25_46" x1="189" y1="37" x2="176" y2="9.5" gradientUnits="userSpaceOnUse">
<stop stop-color="#146D63"/>
<stop offset="1" stop-color="#146D63" stop-opacity="0"/>
</linearGradient>
</defs>
</svg>
